<svg width="197" height="44" viewBox="0 0 197 44" fill="none" xmlns="http://www.w3.org/2000/svg">
<g clip-path="url(#clip0_570_94)">
<path d="M98.8453 44H97.4116V0.364496H98.8453V44.0074V44Z" fill="#41BB93"/>
<path d="M110.766 9.224C110.766 9.26864 110.751 9.31327 110.72 9.35046C110.69 9.38766 110.638 9.41741 110.57 9.43973C110.503 9.46204 110.405 9.48436 110.293 9.4918C110.18 9.49924 110.03 9.51412 109.842 9.51412C109.655 9.51412 109.519 9.51412 109.399 9.4918C109.279 9.46948 109.189 9.46204 109.114 9.43973C109.047 9.41741 108.994 9.38766 108.964 9.35046C108.934 9.31327 108.919 9.26864 108.919 9.224V0.74387C108.919 0.699238 108.934 0.654605 108.964 0.617412C108.994 0.580218 109.047 0.550463 109.114 0.528147C109.189 0.505831 109.279 0.483515 109.399 0.476076C109.519 0.461199 109.662 0.45376 109.842 0.45376C110.022 0.45376 110.173 0.45376 110.293 0.476076C110.413 0.490954 110.503 0.505831 110.57 0.528147C110.638 0.550463 110.69 0.580218 110.72 0.617412C110.751 0.654605 110.766 0.699238 110.766 0.74387V9.224Z" fill="#41BB93"/>
<path d="M120.209 8.83719C120.209 8.94133 120.194 9.03804 120.156 9.11986C120.119 9.20169 120.066 9.26864 120.006 9.32815C119.946 9.38022 119.871 9.42485 119.781 9.44717C119.691 9.46948 119.608 9.48436 119.518 9.48436H118.737C118.572 9.48436 118.437 9.46948 118.317 9.43229C118.197 9.40253 118.092 9.34302 117.987 9.25376C117.889 9.17193 117.792 9.05291 117.694 8.90414C117.604 8.75537 117.499 8.5694 117.379 8.3388L115.127 4.14336C114.999 3.89045 114.864 3.62265 114.729 3.33254C114.594 3.04243 114.474 2.75976 114.369 2.49197H114.354C114.369 2.82671 114.384 3.15401 114.399 3.48876C114.406 3.81606 114.414 4.15824 114.414 4.5153V9.20913C114.414 9.25376 114.399 9.29839 114.376 9.33559C114.354 9.37278 114.309 9.40253 114.241 9.43229C114.181 9.45461 114.091 9.47692 113.986 9.4918C113.881 9.50668 113.738 9.51411 113.573 9.51411C113.408 9.51411 113.273 9.51411 113.168 9.4918C113.063 9.47692 112.98 9.45461 112.912 9.43229C112.852 9.40997 112.807 9.37278 112.785 9.33559C112.762 9.29839 112.747 9.25376 112.747 9.20913V1.14556C112.747 0.929838 112.815 0.766186 112.942 0.654605C113.07 0.543025 113.228 0.490954 113.415 0.490954H114.406C114.586 0.490954 114.729 0.505831 114.857 0.535586C114.977 0.565341 115.089 0.617412 115.179 0.68436C115.277 0.751309 115.367 0.848012 115.45 0.97447C115.532 1.09349 115.622 1.2497 115.712 1.42823L117.476 4.7087C117.581 4.90955 117.679 5.10296 117.784 5.29636C117.882 5.48977 117.979 5.68318 118.077 5.86914C118.167 6.06255 118.265 6.24852 118.347 6.43449C118.437 6.62045 118.52 6.80642 118.602 6.99239C118.587 6.67252 118.58 6.33034 118.572 5.98072C118.565 5.63111 118.565 5.29636 118.565 4.9765V0.766186C118.565 0.721554 118.58 0.676921 118.61 0.639728C118.64 0.602534 118.685 0.572779 118.752 0.543025C118.82 0.51327 118.903 0.498392 119.015 0.483515C119.12 0.468637 119.263 0.468637 119.428 0.468637C119.586 0.468637 119.721 0.468637 119.826 0.483515C119.931 0.498392 120.014 0.51327 120.074 0.543025C120.134 0.572779 120.171 0.602534 120.194 0.639728C120.216 0.676921 120.231 0.721554 120.231 0.766186V8.83719H120.209Z" fill="#41BB93"/>
<path d="M127.55 6.78411C127.55 7.25275 127.46 7.66931 127.287 8.02637C127.115 8.38343 126.867 8.68098 126.567 8.91902C126.267 9.15706 125.906 9.33559 125.501 9.45461C125.096 9.57362 124.66 9.63313 124.202 9.63313C123.887 9.63313 123.602 9.61082 123.331 9.55875C123.061 9.50668 122.829 9.44717 122.618 9.37278C122.408 9.29839 122.243 9.22401 122.1 9.14962C121.965 9.06779 121.86 9.00084 121.8 8.94133C121.74 8.88182 121.695 8.79256 121.673 8.68098C121.65 8.5694 121.635 8.40575 121.635 8.19002C121.635 8.04869 121.635 7.92967 121.65 7.83297C121.665 7.73626 121.673 7.65444 121.695 7.59493C121.718 7.53542 121.748 7.49078 121.778 7.46847C121.815 7.44615 121.853 7.43127 121.898 7.43127C121.965 7.43127 122.055 7.46847 122.175 7.54286C122.296 7.61724 122.446 7.70651 122.633 7.79577C122.821 7.88504 123.046 7.9743 123.301 8.04869C123.557 8.12308 123.857 8.16027 124.202 8.16027C124.427 8.16027 124.623 8.13051 124.803 8.07844C124.983 8.02637 125.133 7.95199 125.253 7.85528C125.373 7.75858 125.471 7.63956 125.538 7.49078C125.606 7.34945 125.636 7.1858 125.636 7.01471C125.636 6.81386 125.583 6.63533 125.471 6.494C125.358 6.34522 125.216 6.21876 125.035 6.10718C124.855 5.9956 124.653 5.88402 124.42 5.78732C124.195 5.69062 123.955 5.57904 123.714 5.47489C123.474 5.37075 123.234 5.23685 123.009 5.09552C122.784 4.95418 122.573 4.78309 122.393 4.58969C122.213 4.39628 122.07 4.15824 121.958 3.89045C121.845 3.62265 121.793 3.30279 121.793 2.92341C121.793 2.49197 121.875 2.11259 122.033 1.79273C122.19 1.47286 122.408 1.19763 122.686 0.98191C122.964 0.766187 123.279 0.602535 123.654 0.498393C124.03 0.394251 124.42 0.34218 124.833 0.34218C125.05 0.34218 125.261 0.357058 125.478 0.394251C125.696 0.424006 125.891 0.468638 126.079 0.528148C126.267 0.587658 126.432 0.647168 126.574 0.714116C126.717 0.781064 126.814 0.840574 126.86 0.885206C126.905 0.929839 126.935 0.974471 126.957 1.00423C126.972 1.03398 126.987 1.07861 127.002 1.13068C127.017 1.18275 127.025 1.2497 127.025 1.33153C127.025 1.41336 127.025 1.51006 127.025 1.63652C127.025 1.77041 127.025 1.88199 127.017 1.9787C127.01 2.0754 127.002 2.14979 126.98 2.2093C126.957 2.26881 126.942 2.31344 126.912 2.34319C126.882 2.37295 126.845 2.38783 126.792 2.38783C126.739 2.38783 126.657 2.35807 126.544 2.29112C126.432 2.22417 126.297 2.15723 126.131 2.08284C125.966 2.00845 125.779 1.93407 125.561 1.87456C125.343 1.81505 125.111 1.77785 124.855 1.77785C124.653 1.77785 124.48 1.80017 124.33 1.85224C124.18 1.90431 124.052 1.97126 123.955 2.05308C123.857 2.14235 123.782 2.23905 123.729 2.36551C123.677 2.48453 123.654 2.61099 123.654 2.74488C123.654 2.94573 123.707 3.11682 123.819 3.25816C123.932 3.40693 124.075 3.53339 124.262 3.64497C124.45 3.75655 124.653 3.86813 124.885 3.96483C125.118 4.06154 125.358 4.17312 125.598 4.27726C125.839 4.38884 126.079 4.5153 126.312 4.65663C126.544 4.79797 126.754 4.96906 126.935 5.16247C127.115 5.35587 127.265 5.59391 127.377 5.85427C127.49 6.12206 127.543 6.43449 127.543 6.79155L127.55 6.78411Z" fill="#41BB93"/>
<path d="M134.846 1.24227C134.846 1.37616 134.846 1.48774 134.831 1.58445C134.816 1.68115 134.801 1.75554 134.779 1.81505C134.756 1.87456 134.726 1.91919 134.689 1.9415C134.651 1.97126 134.614 1.98614 134.576 1.98614H132.309V9.22401C132.309 9.26864 132.294 9.31327 132.264 9.35046C132.234 9.38766 132.181 9.41741 132.114 9.43973C132.046 9.46204 131.949 9.48436 131.829 9.4918C131.709 9.50668 131.558 9.51412 131.386 9.51412C131.213 9.51412 131.063 9.51412 130.943 9.4918C130.823 9.47692 130.725 9.46204 130.658 9.43973C130.59 9.41741 130.538 9.38766 130.508 9.35046C130.477 9.31327 130.462 9.26864 130.462 9.22401V1.98614H128.196C128.15 1.98614 128.113 1.97126 128.075 1.9415C128.045 1.91175 128.015 1.87456 127.993 1.81505C127.97 1.75554 127.955 1.68115 127.94 1.58445C127.925 1.48774 127.925 1.37616 127.925 1.24227C127.925 1.10837 127.925 0.989349 127.94 0.885207C127.955 0.781065 127.97 0.714117 127.993 0.654607C128.015 0.595097 128.045 0.557904 128.075 0.528149C128.105 0.498394 128.15 0.490955 128.196 0.490955H134.584C134.629 0.490955 134.666 0.505833 134.696 0.528149C134.734 0.550465 134.764 0.595097 134.786 0.654607C134.809 0.714117 134.824 0.788504 134.839 0.885207C134.854 0.981911 134.854 1.10093 134.854 1.24227H134.846Z" fill="#41BB93"/>
<path d="M137.767 9.224C137.767 9.26864 137.751 9.31327 137.721 9.35046C137.691 9.38766 137.639 9.41741 137.571 9.43973C137.504 9.46204 137.406 9.48436 137.294 9.4918C137.181 9.49924 137.031 9.51412 136.843 9.51412C136.656 9.51412 136.52 9.51412 136.4 9.4918C136.28 9.46948 136.19 9.46204 136.115 9.43973C136.048 9.41741 135.995 9.38766 135.965 9.35046C135.935 9.31327 135.92 9.26864 135.92 9.224V0.74387C135.92 0.699238 135.935 0.654605 135.965 0.617412C135.995 0.580218 136.048 0.550463 136.115 0.528147C136.19 0.505831 136.28 0.483515 136.4 0.476076C136.52 0.461199 136.663 0.45376 136.843 0.45376C137.023 0.45376 137.173 0.45376 137.294 0.476076C137.414 0.490954 137.504 0.505831 137.571 0.528147C137.639 0.550463 137.691 0.580218 137.721 0.617412C137.751 0.654605 137.767 0.699238 137.767 0.74387V9.224Z" fill="#41BB93"/>
<path d="M145.768 1.24227C145.768 1.37616 145.768 1.48774 145.753 1.58445C145.738 1.68115 145.723 1.75554 145.701 1.81505C145.678 1.87456 145.648 1.91919 145.611 1.9415C145.573 1.97126 145.536 1.98614 145.498 1.98614H143.231V9.22401C143.231 9.26864 143.216 9.31327 143.186 9.35046C143.156 9.38766 143.104 9.41741 143.036 9.43973C142.968 9.46204 142.871 9.48436 142.751 9.4918C142.631 9.50668 142.481 9.51412 142.308 9.51412C142.135 9.51412 141.985 9.51412 141.865 9.4918C141.745 9.47692 141.647 9.46204 141.58 9.43973C141.512 9.41741 141.46 9.38766 141.43 9.35046C141.4 9.31327 141.385 9.26864 141.385 9.22401V1.98614H139.118C139.073 1.98614 139.035 1.97126 138.998 1.9415C138.968 1.91175 138.937 1.87456 138.915 1.81505C138.892 1.75554 138.877 1.68115 138.862 1.58445C138.847 1.48774 138.847 1.37616 138.847 1.24227C138.847 1.10837 138.847 0.989349 138.862 0.885207C138.877 0.781065 138.892 0.714117 138.915 0.654607C138.937 0.595097 138.968 0.557904 138.998 0.528149C139.028 0.498394 139.073 0.490955 139.118 0.490955H145.506C145.551 0.490955 145.588 0.505833 145.618 0.528149C145.656 0.550465 145.686 0.595097 145.708 0.654607C145.731 0.714117 145.746 0.788504 145.761 0.885207C145.776 0.981911 145.776 1.10093 145.776 1.24227H145.768Z" fill="#41BB93"/>
<path d="M154.228 6.1295C154.228 6.67996 154.146 7.17092 153.981 7.6098C153.815 8.04125 153.575 8.41319 153.26 8.71073C152.945 9.00828 152.554 9.23888 152.081 9.3951C151.616 9.55131 151.076 9.63313 150.467 9.63313C149.897 9.63313 149.387 9.56619 148.936 9.42485C148.486 9.28351 148.103 9.06779 147.788 8.78512C147.472 8.50245 147.232 8.13795 147.067 7.71395C146.902 7.28994 146.819 6.78411 146.819 6.21133V0.74387C146.819 0.699238 146.834 0.654605 146.864 0.617412C146.894 0.580218 146.939 0.550463 147.015 0.528147C147.09 0.505831 147.18 0.483515 147.3 0.476076C147.42 0.461199 147.562 0.45376 147.75 0.45376C147.938 0.45376 148.073 0.45376 148.193 0.476076C148.313 0.490954 148.403 0.505831 148.471 0.528147C148.538 0.550463 148.591 0.580218 148.621 0.617412C148.651 0.654605 148.666 0.699238 148.666 0.74387V6.04767C148.666 6.40473 148.711 6.70972 148.801 6.97751C148.891 7.23787 149.019 7.45359 149.184 7.62468C149.349 7.79577 149.544 7.92223 149.777 8.0115C150.01 8.09332 150.265 8.13795 150.55 8.13795C150.835 8.13795 151.098 8.09332 151.331 8.00406C151.563 7.91479 151.751 7.78833 151.909 7.61724C152.066 7.44615 152.186 7.23787 152.277 6.99239C152.359 6.74691 152.404 6.46424 152.404 6.15182V0.74387C152.404 0.699238 152.419 0.654605 152.449 0.617412C152.479 0.580218 152.524 0.550463 152.599 0.528147C152.667 0.505831 152.764 0.483515 152.885 0.476076C153.005 0.461199 153.155 0.45376 153.327 0.45376C153.5 0.45376 153.65 0.45376 153.763 0.476076C153.875 0.490954 153.973 0.505831 154.041 0.528147C154.108 0.550463 154.161 0.580218 154.191 0.617412C154.221 0.654605 154.236 0.699238 154.236 0.74387V6.1295H154.228Z" fill="#41BB93"/>
<path d="M162.23 1.24227C162.23 1.37616 162.23 1.48774 162.215 1.58445C162.2 1.68115 162.185 1.75554 162.162 1.81505C162.14 1.87456 162.11 1.91919 162.072 1.9415C162.035 1.97126 161.997 1.98614 161.96 1.98614H159.693V9.22401C159.693 9.26864 159.678 9.31327 159.648 9.35046C159.618 9.38766 159.565 9.41741 159.498 9.43973C159.43 9.46204 159.333 9.48436 159.212 9.4918C159.092 9.50668 158.942 9.51412 158.77 9.51412C158.597 9.51412 158.447 9.51412 158.327 9.4918C158.207 9.47692 158.109 9.46204 158.041 9.43973C157.974 9.41741 157.921 9.38766 157.891 9.35046C157.861 9.31327 157.846 9.26864 157.846 9.22401V1.98614H155.579C155.534 1.98614 155.497 1.97126 155.459 1.9415C155.429 1.91175 155.399 1.87456 155.377 1.81505C155.354 1.75554 155.339 1.68115 155.324 1.58445C155.309 1.48774 155.309 1.37616 155.309 1.24227C155.309 1.10837 155.309 0.989349 155.324 0.885207C155.339 0.781065 155.354 0.714117 155.377 0.654607C155.399 0.595097 155.429 0.557904 155.459 0.528149C155.489 0.498394 155.534 0.490955 155.579 0.490955H161.967C162.012 0.490955 162.05 0.505833 162.08 0.528149C162.117 0.550465 162.147 0.595097 162.17 0.654607C162.193 0.714117 162.208 0.788504 162.223 0.885207C162.238 0.981911 162.238 1.10093 162.238 1.24227H162.23Z" fill="#41BB93"/>
<path d="M168.671 8.75537C168.671 8.88927 168.671 9.00085 168.656 9.09011C168.641 9.17937 168.626 9.25376 168.603 9.30583C168.581 9.3579 168.55 9.40254 168.513 9.42485C168.475 9.44717 168.438 9.46205 168.4 9.46205H163.851C163.701 9.46205 163.566 9.41741 163.461 9.32815C163.356 9.23888 163.303 9.09011 163.303 8.88926V1.07118C163.303 0.87033 163.356 0.721555 163.461 0.632291C163.566 0.543026 163.694 0.498394 163.851 0.498394H168.37C168.415 0.498394 168.453 0.513271 168.483 0.535588C168.513 0.557904 168.543 0.602536 168.566 0.654607C168.588 0.714117 168.603 0.788504 168.618 0.877768C168.633 0.967033 168.633 1.08605 168.633 1.21995C168.633 1.34641 168.633 1.45799 168.618 1.54725C168.603 1.63652 168.588 1.7109 168.566 1.76298C168.543 1.81505 168.513 1.85968 168.483 1.88199C168.453 1.90431 168.415 1.91919 168.37 1.91919H165.135V4.11361H167.875C167.92 4.11361 167.957 4.12849 167.988 4.1508C168.025 4.17312 168.055 4.21775 168.078 4.26982C168.1 4.32189 168.115 4.39628 168.13 4.48555C168.145 4.57481 168.145 4.68639 168.145 4.81285C168.145 4.93931 168.145 5.05833 168.13 5.14759C168.115 5.23686 168.1 5.3038 168.078 5.35587C168.055 5.40795 168.025 5.44514 167.988 5.46746C167.95 5.48977 167.912 5.50465 167.875 5.50465H165.135V8.03381H168.4C168.445 8.03381 168.483 8.04869 168.513 8.07101C168.55 8.09332 168.581 8.13795 168.603 8.19003C168.626 8.2421 168.641 8.31648 168.656 8.40575C168.671 8.49501 168.671 8.60659 168.671 8.74049V8.75537Z" fill="#41BB93"/>
<path d="M178.617 1.24227C178.617 1.3836 178.617 1.49518 178.602 1.59189C178.587 1.68859 178.572 1.76298 178.549 1.81505C178.527 1.86712 178.497 1.91175 178.459 1.9415C178.429 1.97126 178.392 1.98614 178.347 1.98614H175.381V4.40372H178.159C178.204 4.40372 178.241 4.4186 178.271 4.44091C178.301 4.46323 178.331 4.50042 178.362 4.55993C178.384 4.612 178.407 4.68639 178.414 4.78309C178.422 4.87236 178.429 4.99138 178.429 5.13271C178.429 5.27405 178.429 5.38563 178.414 5.48233C178.399 5.5716 178.384 5.65342 178.362 5.71293C178.339 5.77244 178.309 5.81708 178.271 5.83939C178.241 5.86171 178.204 5.87659 178.159 5.87659H175.381V9.22401C175.381 9.27608 175.366 9.32071 175.336 9.3579C175.306 9.3951 175.261 9.42485 175.186 9.45461C175.111 9.47692 175.021 9.49924 174.901 9.51412C174.781 9.52899 174.638 9.53643 174.451 9.53643C174.263 9.53643 174.128 9.53643 174.008 9.51412C173.888 9.4918 173.798 9.47692 173.723 9.45461C173.655 9.43229 173.602 9.3951 173.572 9.3579C173.542 9.32071 173.527 9.27608 173.527 9.22401V1.07118C173.527 0.87033 173.58 0.721555 173.685 0.632291C173.79 0.543026 173.918 0.498394 174.075 0.498394H178.339C178.384 0.498394 178.422 0.513271 178.452 0.535588C178.482 0.557904 178.512 0.602536 178.542 0.662046C178.564 0.721555 178.587 0.795943 178.594 0.892646C178.602 0.989349 178.609 1.10837 178.609 1.2497L178.617 1.24227Z" fill="#41BB93"/>
<path d="M188.157 4.8798C188.157 5.62367 188.067 6.29315 187.88 6.88081C187.692 7.46847 187.414 7.96686 187.046 8.37599C186.679 8.78512 186.221 9.09755 185.68 9.31327C185.132 9.52899 184.509 9.63313 183.796 9.63313C183.083 9.63313 182.475 9.54387 181.949 9.3579C181.424 9.17193 180.989 8.8967 180.636 8.52477C180.283 8.15283 180.02 7.67675 179.848 7.09653C179.675 6.51631 179.585 5.83195 179.585 5.04345C179.585 4.31445 179.675 3.66729 179.863 3.08707C180.05 2.50685 180.328 2.01589 180.696 1.60676C181.064 1.19763 181.522 0.885206 182.062 0.669484C182.603 0.453761 183.233 0.34218 183.954 0.34218C184.674 0.34218 185.245 0.431445 185.77 0.609974C186.296 0.788503 186.731 1.07117 187.084 1.44311C187.437 1.81505 187.699 2.29112 187.88 2.8639C188.06 3.43669 188.15 4.10617 188.15 4.88723L188.157 4.8798ZM186.228 4.9765C186.228 4.50786 186.191 4.07641 186.116 3.6896C186.041 3.30279 185.913 2.97549 185.733 2.70025C185.553 2.42502 185.312 2.2093 185.012 2.06052C184.712 1.91175 184.337 1.83736 183.894 1.83736C183.451 1.83736 183.06 1.91919 182.76 2.09028C182.46 2.26137 182.212 2.48453 182.025 2.7672C181.837 3.04987 181.709 3.37718 181.627 3.75655C181.552 4.13592 181.514 4.53018 181.514 4.95418C181.514 5.44514 181.552 5.88402 181.627 6.27827C181.702 6.67253 181.829 6.99983 182.002 7.2825C182.182 7.55773 182.415 7.77346 182.715 7.91479C183.015 8.06357 183.391 8.13051 183.841 8.13051C184.292 8.13051 184.674 8.04869 184.975 7.8776C185.275 7.71395 185.523 7.48335 185.71 7.20068C185.898 6.91057 186.026 6.58326 186.108 6.19645C186.183 5.81707 186.221 5.40794 186.221 4.9765H186.228Z" fill="#41BB93"/>
<path d="M196.429 9.23888C196.429 9.29095 196.422 9.33559 196.399 9.36534C196.377 9.3951 196.339 9.43229 196.264 9.45461C196.197 9.47692 196.092 9.4918 195.956 9.50668C195.821 9.52155 195.634 9.52155 195.401 9.52155C195.206 9.52155 195.048 9.52155 194.928 9.50668C194.808 9.49924 194.718 9.47692 194.65 9.45461C194.583 9.43229 194.538 9.3951 194.508 9.3579C194.478 9.32071 194.455 9.26864 194.44 9.21657L193.63 7.20811C193.532 6.98495 193.434 6.78411 193.344 6.60558C193.254 6.42705 193.149 6.28571 193.036 6.16669C192.924 6.04768 192.789 5.95841 192.639 5.8989C192.489 5.83939 192.316 5.80964 192.121 5.80964H191.55V9.23144C191.55 9.27608 191.535 9.32071 191.505 9.3579C191.475 9.3951 191.423 9.42485 191.355 9.44717C191.287 9.46948 191.19 9.4918 191.077 9.49924C190.965 9.50668 190.815 9.52155 190.627 9.52155C190.439 9.52155 190.304 9.52155 190.184 9.49924C190.064 9.47692 189.974 9.46948 189.899 9.44717C189.831 9.42485 189.779 9.3951 189.749 9.3579C189.719 9.32071 189.704 9.27608 189.704 9.23144V1.07118C189.704 0.87033 189.756 0.721555 189.861 0.632291C189.966 0.543026 190.094 0.498394 190.252 0.498394H192.594C192.834 0.498394 193.029 0.498394 193.179 0.513271C193.329 0.528149 193.472 0.535588 193.599 0.550465C193.96 0.602536 194.29 0.691801 194.583 0.81082C194.876 0.937278 195.123 1.10093 195.326 1.30178C195.529 1.50262 195.686 1.74066 195.791 2.01589C195.896 2.29112 195.949 2.60355 195.949 2.96061C195.949 3.25816 195.911 3.53339 195.836 3.77887C195.761 4.02434 195.649 4.24751 195.499 4.44091C195.348 4.63432 195.168 4.80541 194.943 4.94675C194.725 5.08808 194.478 5.2071 194.192 5.29636C194.328 5.36331 194.455 5.4377 194.575 5.5344C194.695 5.62367 194.808 5.74269 194.913 5.86915C195.018 6.00304 195.116 6.15182 195.213 6.32291C195.303 6.494 195.401 6.67997 195.484 6.89569L196.249 8.6661C196.317 8.84463 196.369 8.97109 196.392 9.05292C196.414 9.13474 196.429 9.19425 196.429 9.24632V9.23888ZM194.05 3.14658C194.05 2.84903 193.982 2.60355 193.847 2.39527C193.712 2.19442 193.487 2.04565 193.179 1.96382C193.089 1.9415 192.976 1.91919 192.864 1.91175C192.744 1.89687 192.579 1.88943 192.368 1.88943H191.543V4.43347H192.481C192.744 4.43347 192.969 4.40372 193.164 4.33677C193.359 4.27726 193.524 4.188 193.652 4.07642C193.78 3.96483 193.877 3.83094 193.945 3.66729C194.012 3.51107 194.042 3.33254 194.042 3.13914L194.05 3.14658Z" fill="#41BB93"/>
<path d="M115.179 25.1652C115.179 25.2842 115.179 25.3809 115.172 25.4627C115.164 25.5445 115.157 25.6115 115.142 25.671C115.127 25.7305 115.112 25.7751 115.089 25.8198C115.067 25.8644 115.029 25.909 114.977 25.9611C114.924 26.0132 114.827 26.0801 114.676 26.1694C114.526 26.2512 114.354 26.3331 114.136 26.4074C113.926 26.4818 113.678 26.5488 113.408 26.6008C113.138 26.6529 112.837 26.6752 112.522 26.6752C111.899 26.6752 111.344 26.5785 110.841 26.3926C110.345 26.2066 109.917 25.9165 109.565 25.5445C109.212 25.1652 108.949 24.6965 108.761 24.1312C108.574 23.5658 108.484 22.9112 108.484 22.1599C108.484 21.4086 108.589 20.7168 108.791 20.1292C108.994 19.5415 109.287 19.0431 109.655 18.634C110.022 18.2249 110.465 17.9273 110.983 17.719C111.501 17.5107 112.064 17.4066 112.687 17.4066C112.942 17.4066 113.183 17.4289 113.415 17.4661C113.648 17.5033 113.866 17.5628 114.061 17.6298C114.256 17.6967 114.436 17.7711 114.594 17.8604C114.752 17.9496 114.864 18.024 114.924 18.0835C114.984 18.143 115.029 18.1951 115.052 18.2397C115.074 18.2844 115.097 18.3364 115.104 18.3959C115.119 18.4629 115.127 18.5373 115.134 18.6265C115.142 18.7158 115.142 18.8199 115.142 18.9538C115.142 19.0952 115.142 19.2068 115.127 19.3109C115.112 19.415 115.104 19.4894 115.082 19.5489C115.059 19.6085 115.029 19.6531 114.999 19.6828C114.969 19.7126 114.932 19.7275 114.887 19.7275C114.819 19.7275 114.729 19.6903 114.624 19.6085C114.519 19.5266 114.376 19.4374 114.211 19.3407C114.038 19.244 113.836 19.1547 113.603 19.0729C113.37 18.991 113.085 18.9538 112.762 18.9538C112.402 18.9538 112.079 19.0282 111.802 19.1696C111.516 19.3183 111.276 19.5266 111.081 19.7944C110.886 20.0622 110.736 20.3895 110.63 20.7763C110.525 21.1631 110.48 21.5946 110.48 22.0707C110.48 22.5988 110.533 23.0526 110.646 23.4394C110.758 23.8262 110.908 24.1461 111.111 24.3915C111.314 24.637 111.561 24.8304 111.847 24.9495C112.132 25.0685 112.455 25.1354 112.815 25.1354C113.138 25.1354 113.423 25.0982 113.663 25.0238C113.903 24.9495 114.106 24.8602 114.279 24.7709C114.451 24.6817 114.586 24.5924 114.699 24.518C114.812 24.4436 114.894 24.4064 114.954 24.4064C114.999 24.4064 115.037 24.4139 115.067 24.4362C115.097 24.4585 115.119 24.4883 115.134 24.5478C115.149 24.5998 115.164 24.6817 115.179 24.7784C115.187 24.8751 115.194 25.009 115.194 25.18L115.179 25.1652Z" fill="#41BB93"/>
<path d="M121.477 25.7603C121.477 25.9016 121.477 26.0132 121.462 26.1099C121.447 26.2066 121.432 26.281 121.41 26.3479C121.387 26.4074 121.357 26.4521 121.32 26.4818C121.282 26.5116 121.245 26.5265 121.2 26.5265H117.048C116.898 26.5265 116.763 26.4818 116.658 26.3926C116.553 26.3033 116.5 26.1545 116.5 25.9537V17.8008C116.5 17.7562 116.515 17.7116 116.546 17.6744C116.576 17.6372 116.628 17.6074 116.696 17.5851C116.763 17.5628 116.861 17.5405 116.981 17.533C117.101 17.5182 117.251 17.5107 117.424 17.5107C117.596 17.5107 117.754 17.5107 117.874 17.533C117.994 17.5479 118.084 17.5628 118.152 17.5851C118.219 17.6074 118.272 17.6372 118.302 17.6744C118.332 17.7116 118.347 17.7562 118.347 17.8008V25.0238H121.2C121.245 25.0238 121.29 25.0387 121.32 25.061C121.35 25.0833 121.387 25.128 121.41 25.1875C121.432 25.247 121.447 25.3214 121.462 25.4181C121.477 25.5148 121.477 25.6338 121.477 25.7677V25.7603Z" fill="#41BB93"/>
<path d="M124.412 26.2735C124.412 26.3182 124.397 26.3628 124.367 26.4C124.337 26.4372 124.285 26.4669 124.217 26.4893C124.15 26.5116 124.052 26.5339 123.939 26.5413C123.827 26.5488 123.677 26.5636 123.489 26.5636C123.301 26.5636 123.166 26.5637 123.046 26.5413C122.926 26.519 122.836 26.5116 122.761 26.4893C122.686 26.4669 122.641 26.4372 122.611 26.4C122.581 26.3628 122.566 26.3182 122.566 26.2735V17.7934C122.566 17.7488 122.581 17.7041 122.611 17.6669C122.641 17.6298 122.693 17.6 122.761 17.5777C122.836 17.5554 122.926 17.533 123.046 17.5256C123.166 17.5107 123.309 17.5033 123.489 17.5033C123.669 17.5033 123.819 17.5033 123.939 17.5256C124.059 17.5405 124.15 17.5554 124.217 17.5777C124.285 17.6 124.337 17.6298 124.367 17.6669C124.397 17.7041 124.412 17.7488 124.412 17.7934V26.2735Z" fill="#41BB93"/>
<path d="M136.948 26.2735C136.948 26.3182 136.933 26.3628 136.911 26.4C136.888 26.4372 136.836 26.4669 136.768 26.4893C136.701 26.5116 136.61 26.5339 136.498 26.5413C136.385 26.5562 136.243 26.5636 136.07 26.5636C135.897 26.5636 135.762 26.5637 135.65 26.5413C135.537 26.5265 135.447 26.5116 135.387 26.4893C135.327 26.4669 135.274 26.4372 135.244 26.4C135.214 26.3628 135.199 26.3182 135.199 26.2735V18.9687H135.184L132.557 26.2661C132.542 26.3256 132.504 26.3777 132.467 26.4149C132.429 26.4521 132.369 26.4818 132.294 26.5116C132.219 26.5339 132.129 26.5488 132.017 26.5562C131.904 26.5562 131.769 26.5636 131.611 26.5636C131.454 26.5636 131.318 26.5636 131.206 26.5488C131.093 26.5339 131.003 26.519 130.928 26.4967C130.853 26.4744 130.8 26.4372 130.755 26.4C130.71 26.3628 130.688 26.3182 130.673 26.2661L128.136 18.9687H128.121V26.2735C128.121 26.3182 128.106 26.3628 128.083 26.4C128.061 26.4372 128.008 26.4669 127.94 26.4893C127.873 26.5116 127.783 26.5339 127.67 26.5413C127.558 26.5562 127.423 26.5636 127.25 26.5636C127.077 26.5636 126.942 26.5637 126.83 26.5413C126.717 26.5265 126.627 26.5116 126.559 26.4893C126.492 26.4669 126.447 26.4372 126.417 26.4C126.387 26.3628 126.379 26.3182 126.379 26.2735V18.2769C126.379 18.0389 126.439 17.8604 126.567 17.7339C126.694 17.6074 126.86 17.5479 127.07 17.5479H128.271C128.488 17.5479 128.669 17.5628 128.826 17.6C128.976 17.6372 129.112 17.6893 129.224 17.7711C129.337 17.8529 129.427 17.9571 129.502 18.091C129.577 18.2249 129.644 18.3885 129.697 18.5819L131.656 23.9303H131.686L133.72 18.5968C133.781 18.4034 133.848 18.2397 133.923 18.1058C133.998 17.9719 134.081 17.8604 134.178 17.7785C134.276 17.6967 134.389 17.6372 134.516 17.6C134.644 17.5628 134.801 17.5479 134.974 17.5479H136.213C136.34 17.5479 136.445 17.5628 136.535 17.6C136.625 17.6298 136.701 17.6818 136.761 17.7413C136.821 17.8008 136.866 17.8827 136.896 17.9719C136.926 18.0612 136.941 18.1653 136.941 18.2844V26.281L136.948 26.2735Z" fill="#41BB93"/>
<path d="M146.339 25.8421C146.391 26.0057 146.429 26.1396 146.444 26.2363C146.459 26.3331 146.444 26.4074 146.391 26.4521C146.339 26.4967 146.249 26.5339 146.121 26.5413C145.994 26.5562 145.813 26.5562 145.581 26.5562C145.348 26.5562 145.16 26.5562 145.025 26.5488C144.89 26.5488 144.792 26.5265 144.717 26.5041C144.65 26.4818 144.597 26.4521 144.567 26.4149C144.537 26.3777 144.515 26.3331 144.5 26.2661L143.892 24.4659H140.491L139.921 26.2215C139.906 26.2884 139.876 26.3405 139.846 26.3851C139.816 26.4298 139.763 26.4669 139.696 26.4893C139.628 26.5116 139.53 26.5339 139.41 26.5413C139.29 26.5488 139.125 26.5562 138.922 26.5562C138.705 26.5562 138.54 26.5562 138.419 26.5339C138.299 26.519 138.217 26.4893 138.164 26.4298C138.119 26.3777 138.104 26.3033 138.112 26.2066C138.127 26.1099 138.164 25.9834 138.217 25.8198L141.009 17.8529C141.039 17.7711 141.069 17.7116 141.107 17.6595C141.144 17.6074 141.204 17.5777 141.287 17.5479C141.37 17.5256 141.482 17.5033 141.625 17.4959C141.767 17.4959 141.963 17.4884 142.195 17.4884C142.473 17.4884 142.691 17.4884 142.856 17.4959C143.021 17.4959 143.149 17.5182 143.239 17.5479C143.329 17.5702 143.396 17.6149 143.434 17.6595C143.471 17.7116 143.509 17.7785 143.539 17.8678L146.339 25.8272V25.8421ZM142.18 19.2588L140.897 23.0749H143.464L142.18 19.2588Z" fill="#41BB93"/>
<path d="M152.517 18.2918C152.517 18.4257 152.517 18.5373 152.502 18.634C152.487 18.7307 152.472 18.8051 152.449 18.8646C152.427 18.9241 152.397 18.9687 152.359 18.991C152.322 19.0208 152.284 19.0357 152.246 19.0357H149.979V26.2735C149.979 26.3182 149.964 26.3628 149.934 26.4C149.904 26.4372 149.852 26.4669 149.784 26.4893C149.717 26.5116 149.619 26.5339 149.499 26.5413C149.379 26.5562 149.229 26.5637 149.056 26.5637C148.884 26.5637 148.733 26.5637 148.613 26.5413C148.493 26.5265 148.396 26.5116 148.328 26.4893C148.261 26.4669 148.208 26.4372 148.178 26.4C148.148 26.3628 148.133 26.3182 148.133 26.2735V19.0357H145.866C145.821 19.0357 145.783 19.0208 145.746 18.991C145.716 18.9613 145.686 18.9241 145.663 18.8646C145.641 18.8051 145.626 18.7307 145.611 18.634C145.596 18.5373 145.596 18.4257 145.596 18.2918C145.596 18.1579 145.596 18.0389 145.611 17.9347C145.626 17.8306 145.641 17.7637 145.663 17.7041C145.686 17.6446 145.716 17.6074 145.746 17.5777C145.776 17.5479 145.821 17.5405 145.866 17.5405H152.254C152.299 17.5405 152.337 17.5554 152.367 17.5777C152.404 17.6 152.434 17.6446 152.457 17.7041C152.479 17.7637 152.494 17.838 152.509 17.9347C152.524 18.0314 152.524 18.1505 152.524 18.2918H152.517Z" fill="#41BB93"/>
<path d="M158.957 25.8049C158.957 25.9388 158.957 26.0504 158.942 26.1396C158.927 26.2289 158.912 26.3033 158.89 26.3554C158.867 26.4074 158.837 26.4521 158.8 26.4744C158.762 26.4967 158.725 26.5116 158.687 26.5116H154.138C153.988 26.5116 153.853 26.4669 153.748 26.3777C153.643 26.2884 153.59 26.1396 153.59 25.9388V18.1133C153.59 17.9124 153.643 17.7637 153.748 17.6744C153.853 17.5851 153.98 17.5405 154.138 17.5405H158.657C158.702 17.5405 158.74 17.5554 158.77 17.5777C158.8 17.6 158.83 17.6446 158.852 17.6967C158.875 17.7562 158.89 17.8306 158.905 17.9199C158.92 18.0091 158.92 18.1281 158.92 18.262C158.92 18.3885 158.92 18.5001 158.905 18.5893C158.89 18.6786 158.875 18.753 158.852 18.8051C158.83 18.8571 158.8 18.9018 158.77 18.9241C158.74 18.9464 158.702 18.9613 158.657 18.9613H155.422V21.1557H158.162C158.207 21.1557 158.244 21.1706 158.274 21.1929C158.312 21.2152 158.342 21.2598 158.364 21.3119C158.387 21.364 158.402 21.4384 158.417 21.5276C158.432 21.6169 158.432 21.7285 158.432 21.8549C158.432 21.9814 158.432 22.1004 158.417 22.1897C158.402 22.279 158.387 22.3459 158.364 22.398C158.342 22.45 158.312 22.4872 158.274 22.5096C158.237 22.5319 158.199 22.5467 158.162 22.5467H155.422V25.0759H158.687C158.732 25.0759 158.77 25.0908 158.8 25.1131C158.83 25.1354 158.867 25.18 158.89 25.2321C158.912 25.2842 158.927 25.3586 158.942 25.4478C158.957 25.5371 158.957 25.6487 158.957 25.7826V25.8049Z" fill="#41BB93"/>
<path d="M171.245 25.8421C171.298 26.0057 171.335 26.1396 171.35 26.2363C171.365 26.3331 171.35 26.4074 171.298 26.4521C171.245 26.4967 171.155 26.5339 171.028 26.5413C170.9 26.5562 170.72 26.5562 170.487 26.5562C170.254 26.5562 170.067 26.5562 169.932 26.5488C169.797 26.5488 169.699 26.5265 169.624 26.5041C169.556 26.4818 169.504 26.4521 169.474 26.4149C169.444 26.3777 169.421 26.3331 169.406 26.2661L168.798 24.4659H165.398L164.827 26.2215C164.812 26.2884 164.782 26.3405 164.752 26.3851C164.722 26.4298 164.67 26.4669 164.602 26.4893C164.535 26.5116 164.437 26.5339 164.317 26.5413C164.197 26.5488 164.032 26.5562 163.829 26.5562C163.611 26.5562 163.446 26.5562 163.326 26.5339C163.206 26.519 163.123 26.4893 163.071 26.4298C163.026 26.3777 163.011 26.3033 163.018 26.2066C163.033 26.1099 163.071 25.9834 163.123 25.8198L165.916 17.8529C165.946 17.7711 165.976 17.7116 166.013 17.6595C166.051 17.6074 166.111 17.5777 166.193 17.5479C166.276 17.5256 166.389 17.5033 166.531 17.4959C166.674 17.4959 166.869 17.4884 167.102 17.4884C167.379 17.4884 167.597 17.4884 167.762 17.4959C167.927 17.4959 168.055 17.5182 168.145 17.5479C168.235 17.5702 168.303 17.6149 168.34 17.6595C168.378 17.7116 168.415 17.7785 168.445 17.8678L171.245 25.8272V25.8421ZM167.087 19.2588L165.803 23.0749H168.37L167.087 19.2588Z" fill="#41BB93"/>
<path d="M179.983 25.8867C179.983 25.9909 179.968 26.0876 179.93 26.1694C179.893 26.2512 179.84 26.3182 179.78 26.3777C179.72 26.4298 179.645 26.4744 179.555 26.4967C179.465 26.519 179.382 26.5339 179.292 26.5339H178.512C178.347 26.5339 178.211 26.519 178.091 26.4818C177.971 26.4521 177.866 26.3926 177.761 26.3033C177.663 26.214 177.566 26.1024 177.468 25.9537C177.378 25.8049 177.273 25.6189 177.153 25.3883L174.901 21.1929C174.773 20.94 174.638 20.6722 174.503 20.3821C174.368 20.092 174.248 19.8093 174.143 19.5415H174.128C174.143 19.8762 174.158 20.2035 174.173 20.5383C174.18 20.8656 174.188 21.2078 174.188 21.5648V26.2587C174.188 26.3033 174.173 26.3479 174.15 26.3851C174.128 26.4223 174.083 26.4521 174.015 26.4818C173.948 26.5116 173.865 26.5265 173.76 26.5413C173.655 26.5562 173.512 26.5636 173.347 26.5636C173.182 26.5636 173.047 26.5637 172.942 26.5413C172.837 26.5265 172.754 26.5116 172.687 26.4818C172.619 26.4521 172.582 26.4223 172.559 26.3851C172.536 26.3479 172.521 26.3033 172.521 26.2587V18.1877C172.521 17.9719 172.589 17.8083 172.717 17.6967C172.844 17.5851 173.002 17.533 173.19 17.533H174.18C174.361 17.533 174.503 17.5479 174.631 17.5777C174.751 17.6074 174.864 17.6595 174.954 17.7265C175.051 17.7934 175.141 17.8901 175.224 18.0166C175.306 18.1356 175.396 18.2918 175.487 18.4703L177.251 21.7508C177.356 21.9516 177.453 22.1451 177.558 22.3385C177.656 22.5319 177.753 22.7253 177.851 22.9112C177.941 23.1046 178.039 23.2906 178.121 23.4766C178.211 23.6626 178.294 23.8485 178.377 24.0345C178.362 23.7146 178.354 23.3724 178.347 23.0228C178.347 22.6732 178.339 22.3385 178.339 22.0186V17.8083C178.339 17.7637 178.354 17.719 178.384 17.6818C178.414 17.6446 178.459 17.6149 178.527 17.5851C178.594 17.5554 178.677 17.5405 178.789 17.5256C178.894 17.5107 179.037 17.5107 179.202 17.5107C179.36 17.5107 179.495 17.5107 179.6 17.5256C179.705 17.5405 179.788 17.5554 179.848 17.5851C179.908 17.6149 179.945 17.6446 179.968 17.6818C179.99 17.719 180.005 17.7637 180.005 17.8083V25.8793L179.983 25.8867Z" fill="#41BB93"/>
<path d="M189.478 21.8996C189.478 22.7253 189.373 23.4245 189.156 24.0122C188.938 24.5998 188.63 25.0759 188.217 25.4478C187.812 25.8198 187.317 26.0876 186.739 26.2661C186.161 26.4446 185.462 26.5265 184.659 26.5265H182.497C182.347 26.5265 182.212 26.4818 182.107 26.3926C182.002 26.3033 181.949 26.1545 181.949 25.9537V18.1281C181.949 17.9273 182.002 17.7785 182.107 17.6893C182.212 17.6 182.34 17.5554 182.497 17.5554H184.824C185.635 17.5554 186.318 17.6521 186.881 17.838C187.444 18.024 187.917 18.3067 188.3 18.6712C188.683 19.0357 188.976 19.4894 189.178 20.0325C189.381 20.5755 189.478 21.2003 189.478 21.9145V21.8996ZM187.579 21.9665C187.579 21.5425 187.527 21.1483 187.429 20.7838C187.332 20.4193 187.166 20.0994 186.949 19.8316C186.731 19.5638 186.446 19.3555 186.093 19.2068C185.748 19.058 185.29 18.9836 184.727 18.9836H183.796V25.0908H184.757C185.26 25.0908 185.688 25.0238 186.033 24.8974C186.378 24.7709 186.664 24.5701 186.896 24.3097C187.129 24.0494 187.302 23.7221 187.414 23.3352C187.527 22.9484 187.587 22.4947 187.587 21.974L187.579 21.9665Z" fill="#41BB93"/>
<path d="M114.286 42.8619C114.286 42.9958 114.286 43.1074 114.271 43.1966C114.256 43.2859 114.241 43.3603 114.219 43.4123C114.196 43.4644 114.166 43.509 114.128 43.5314C114.091 43.5537 114.053 43.5686 114.016 43.5686H109.467C109.317 43.5686 109.182 43.5239 109.077 43.4347C108.971 43.3454 108.919 43.1966 108.919 42.9958V35.1702C108.919 34.9694 108.971 34.8206 109.077 34.7314C109.182 34.6421 109.309 34.5975 109.467 34.5975H113.986C114.031 34.5975 114.068 34.6123 114.098 34.6347C114.128 34.657 114.158 34.7016 114.181 34.7537C114.204 34.8058 114.219 34.8876 114.234 34.9768C114.249 35.0661 114.249 35.1777 114.249 35.319C114.249 35.4455 114.249 35.5571 114.234 35.6463C114.219 35.7356 114.204 35.81 114.181 35.862C114.158 35.9141 114.128 35.9588 114.098 35.9811C114.068 36.0034 114.031 36.0183 113.986 36.0183H110.751V38.2127H113.49C113.535 38.2127 113.573 38.2276 113.603 38.2499C113.641 38.2722 113.671 38.3168 113.693 38.3689C113.716 38.421 113.731 38.4954 113.746 38.5846C113.761 38.6739 113.761 38.7855 113.761 38.9119C113.761 39.0384 113.761 39.1574 113.746 39.2467C113.731 39.3359 113.716 39.4029 113.693 39.4624C113.671 39.5145 113.641 39.5517 113.603 39.574C113.565 39.5963 113.528 39.6112 113.49 39.6112H110.751V42.1403H114.016C114.061 42.1403 114.098 42.1552 114.128 42.1775C114.158 42.1998 114.196 42.2445 114.219 42.2965C114.241 42.3486 114.256 42.423 114.271 42.5123C114.286 42.6015 114.286 42.7131 114.286 42.847V42.8619Z" fill="#41BB93"/>
<path d="M123.106 42.9363C123.106 43.0404 123.091 43.1371 123.054 43.2189C123.016 43.3008 122.964 43.3677 122.904 43.4272C122.843 43.4793 122.768 43.5239 122.678 43.5462C122.588 43.5686 122.506 43.5834 122.416 43.5834H121.635C121.47 43.5834 121.335 43.5686 121.215 43.5314C121.094 43.5016 120.989 43.4421 120.884 43.3528C120.787 43.2636 120.689 43.152 120.592 43.0032C120.501 42.8544 120.396 42.6685 120.276 42.4379L118.024 38.2424C117.897 37.9895 117.762 37.7217 117.626 37.4316C117.491 37.1415 117.371 36.8588 117.266 36.591H117.251C117.266 36.9258 117.281 37.2531 117.296 37.5878C117.304 37.9226 117.311 38.2573 117.311 38.6144V43.3082C117.311 43.3528 117.296 43.3975 117.274 43.4347C117.251 43.4719 117.206 43.5016 117.139 43.5314C117.071 43.5611 116.988 43.576 116.883 43.5909C116.778 43.6057 116.636 43.6132 116.47 43.6132C116.305 43.6132 116.17 43.6132 116.065 43.5909C115.96 43.576 115.877 43.5611 115.81 43.5314C115.742 43.5016 115.705 43.4719 115.682 43.4347C115.66 43.3975 115.645 43.3528 115.645 43.3082V35.2372C115.645 35.0215 115.712 34.8578 115.84 34.7462C115.968 34.6347 116.125 34.5826 116.313 34.5826H117.304C117.484 34.5826 117.626 34.5975 117.754 34.6272C117.874 34.657 117.987 34.709 118.077 34.776C118.174 34.8429 118.265 34.9396 118.347 35.0661C118.43 35.1926 118.52 35.3413 118.61 35.5199L120.374 38.8003C120.479 39.0012 120.577 39.1946 120.682 39.388C120.779 39.5814 120.877 39.7748 120.974 39.9608C121.064 40.1542 121.162 40.3402 121.245 40.5261C121.335 40.7121 121.417 40.8981 121.5 41.084C121.485 40.7567 121.477 40.422 121.47 40.0724C121.462 39.7227 121.462 39.388 121.462 39.0681V34.8578C121.462 34.8132 121.477 34.7686 121.507 34.7314C121.537 34.6942 121.582 34.6644 121.65 34.6347C121.718 34.6049 121.8 34.59 121.913 34.5751C122.018 34.5603 122.16 34.5603 122.326 34.5603C122.483 34.5603 122.618 34.5603 122.723 34.5751C122.828 34.59 122.911 34.6049 122.971 34.6347C123.031 34.6644 123.069 34.6942 123.091 34.7314C123.114 34.7686 123.129 34.8132 123.129 34.8578V42.9288L123.106 42.9363Z" fill="#41BB93"/>
<path d="M129.314 43.2561C129.292 43.338 129.262 43.3975 129.224 43.4495C129.186 43.5016 129.126 43.5388 129.044 43.5611C128.961 43.5834 128.849 43.6058 128.699 43.6058C128.548 43.6058 128.368 43.6132 128.128 43.6132C127.94 43.6132 127.783 43.6132 127.648 43.6132C127.513 43.6132 127.4 43.6058 127.31 43.5983C127.22 43.5909 127.145 43.576 127.085 43.5537C127.025 43.5314 126.98 43.509 126.935 43.4867C126.897 43.457 126.867 43.4272 126.844 43.3826C126.822 43.3454 126.807 43.2933 126.784 43.2338L124.09 35.2744C124.037 35.1107 123.999 34.9768 123.984 34.8801C123.969 34.7834 123.992 34.709 124.052 34.6644C124.112 34.6198 124.21 34.5826 124.352 34.5751C124.495 34.5603 124.69 34.5603 124.938 34.5603C125.155 34.5603 125.321 34.5603 125.441 34.5751C125.561 34.5826 125.658 34.5975 125.718 34.6272C125.786 34.6495 125.831 34.6867 125.854 34.7314C125.876 34.776 125.906 34.8355 125.929 34.9025L128.136 41.8279L130.297 34.9396C130.312 34.8578 130.342 34.7983 130.365 34.7462C130.395 34.6942 130.44 34.657 130.508 34.6347C130.575 34.6049 130.673 34.59 130.8 34.5826C130.928 34.5752 131.101 34.5677 131.318 34.5677C131.536 34.5677 131.701 34.5677 131.821 34.59C131.941 34.6049 132.024 34.6347 132.069 34.6942C132.114 34.7462 132.129 34.8206 132.114 34.9173C132.099 35.014 132.061 35.1405 132.009 35.3041L129.307 43.271L129.314 43.2561Z" fill="#41BB93"/>
<path d="M134.861 43.3231C134.861 43.3677 134.846 43.4123 134.816 43.4495C134.786 43.4867 134.734 43.5165 134.666 43.5388C134.599 43.5611 134.501 43.5834 134.389 43.5909C134.276 43.5983 134.126 43.6132 133.938 43.6132C133.751 43.6132 133.615 43.6132 133.495 43.5909C133.375 43.5686 133.285 43.5611 133.21 43.5388C133.135 43.5165 133.09 43.4867 133.06 43.4495C133.03 43.4123 133.015 43.3677 133.015 43.3231V34.8429C133.015 34.7983 133.03 34.7537 133.06 34.7165C133.09 34.6793 133.143 34.6495 133.21 34.6272C133.285 34.6049 133.375 34.5826 133.495 34.5751C133.615 34.5603 133.758 34.5528 133.938 34.5528C134.118 34.5528 134.268 34.5528 134.389 34.5751C134.509 34.5975 134.599 34.6049 134.666 34.6272C134.734 34.6495 134.786 34.6793 134.816 34.7165C134.846 34.7537 134.861 34.7983 134.861 34.8429V43.3231Z" fill="#41BB93"/>
<path d="M143.284 43.338C143.284 43.39 143.276 43.4347 143.254 43.4644C143.231 43.4942 143.194 43.5314 143.119 43.5537C143.051 43.576 142.946 43.5909 142.811 43.6057C142.676 43.6206 142.488 43.6206 142.255 43.6206C142.06 43.6206 141.902 43.6206 141.782 43.6057C141.662 43.5983 141.572 43.576 141.505 43.5537C141.437 43.5314 141.392 43.4942 141.362 43.457C141.332 43.4198 141.309 43.3677 141.294 43.3156L140.484 41.3146C140.386 41.0915 140.289 40.8832 140.199 40.7121C140.108 40.5336 140.003 40.3922 139.891 40.2732C139.778 40.1542 139.643 40.0649 139.493 40.0054C139.343 39.9459 139.17 39.9161 138.975 39.9161H138.404V43.338C138.404 43.3826 138.389 43.4272 138.359 43.4644C138.329 43.5016 138.277 43.5314 138.209 43.5537C138.142 43.576 138.044 43.5983 137.932 43.6057C137.819 43.6132 137.669 43.6281 137.481 43.6281C137.293 43.6281 137.158 43.6281 137.038 43.6057C136.918 43.5834 136.828 43.576 136.753 43.5537C136.678 43.5314 136.633 43.5016 136.603 43.4644C136.573 43.4272 136.558 43.3826 136.558 43.338V35.1851C136.558 34.9843 136.61 34.8355 136.716 34.7462C136.821 34.657 136.948 34.6123 137.106 34.6123H139.448C139.688 34.6123 139.883 34.6123 140.033 34.6272C140.183 34.6421 140.326 34.6495 140.454 34.6644C140.814 34.7165 141.144 34.8058 141.437 34.9248C141.73 35.0512 141.978 35.2149 142.18 35.4157C142.383 35.6166 142.541 35.8546 142.646 36.1298C142.751 36.4051 142.803 36.7175 142.803 37.0746C142.803 37.3721 142.766 37.6473 142.691 37.9003C142.616 38.1457 142.503 38.3689 142.353 38.5623C142.203 38.7557 142.023 38.9268 141.797 39.0681C141.58 39.2095 141.332 39.3285 141.047 39.4178C141.182 39.4847 141.309 39.5591 141.43 39.6558C141.55 39.7451 141.662 39.8641 141.767 39.9905C141.872 40.1244 141.97 40.2732 142.068 40.4443C142.158 40.6154 142.255 40.8014 142.338 41.0171L143.104 42.7875C143.171 42.966 143.224 43.0925 143.246 43.1743C143.269 43.2561 143.284 43.3156 143.284 43.3677V43.338ZM140.912 37.2456C140.912 36.9481 140.844 36.7026 140.709 36.4943C140.574 36.2935 140.349 36.1447 140.041 36.0629C139.951 36.0406 139.838 36.0183 139.726 36.0108C139.605 35.9959 139.44 35.9885 139.23 35.9885H138.404V38.5325H139.343C139.605 38.5325 139.831 38.5028 140.026 38.4358C140.221 38.3689 140.386 38.2871 140.514 38.1755C140.641 38.0639 140.739 37.93 140.807 37.7664C140.874 37.6101 140.904 37.4316 140.904 37.2382L140.912 37.2456Z" fill="#41BB93"/>
<path d="M152.374 38.9789C152.374 39.7227 152.284 40.3922 152.096 40.9799C151.909 41.5675 151.631 42.0659 151.263 42.4751C150.895 42.8842 150.437 43.1966 149.897 43.4123C149.349 43.6281 148.726 43.7322 148.013 43.7322C147.3 43.7322 146.692 43.6429 146.166 43.457C145.641 43.271 145.205 42.9958 144.852 42.6238C144.5 42.2519 144.237 41.7758 144.064 41.1956C143.892 40.6154 143.802 39.931 143.802 39.1425C143.802 38.4135 143.892 37.7589 144.079 37.1787C144.267 36.5985 144.545 36.1075 144.912 35.6984C145.28 35.2893 145.738 34.9768 146.279 34.7611C146.819 34.5454 147.45 34.4338 148.17 34.4338C148.891 34.4338 149.461 34.5231 149.987 34.7016C150.512 34.8801 150.948 35.1554 151.3 35.5347C151.653 35.9067 151.916 36.3828 152.096 36.9555C152.276 37.5283 152.366 38.2052 152.366 38.9789H152.374ZM150.437 39.0756C150.437 38.6069 150.4 38.1755 150.325 37.7887C150.25 37.4019 150.122 37.0746 149.942 36.7993C149.762 36.5241 149.521 36.3084 149.221 36.1596C148.921 36.0108 148.546 35.9364 148.103 35.9364C147.66 35.9364 147.269 36.0183 146.969 36.1894C146.669 36.3604 146.421 36.5836 146.234 36.8663C146.046 37.1489 145.918 37.4762 145.836 37.8556C145.761 38.235 145.723 38.6292 145.723 39.0533C145.723 39.5442 145.761 39.9831 145.836 40.3773C145.911 40.7716 146.038 41.0989 146.211 41.3816C146.391 41.6568 146.624 41.8725 146.924 42.0139C147.224 42.1626 147.6 42.2296 148.05 42.2296C148.501 42.2296 148.883 42.1478 149.184 41.9767C149.484 41.813 149.732 41.5824 149.919 41.2997C150.107 41.0096 150.235 40.6749 150.317 40.2955C150.392 39.9161 150.43 39.507 150.43 39.0756H150.437Z" fill="#41BB93"/>
<path d="M161.119 42.9363C161.119 43.0404 161.104 43.1371 161.067 43.2189C161.029 43.3008 160.977 43.3677 160.916 43.4272C160.856 43.4793 160.781 43.5239 160.691 43.5462C160.601 43.5686 160.519 43.5834 160.429 43.5834H159.648C159.483 43.5834 159.348 43.5686 159.228 43.5314C159.107 43.5016 159.002 43.4421 158.897 43.3528C158.8 43.2636 158.702 43.152 158.604 43.0032C158.514 42.8544 158.409 42.6685 158.289 42.4379L156.037 38.2424C155.91 37.9895 155.775 37.7217 155.639 37.4316C155.504 37.1415 155.384 36.8588 155.279 36.591H155.264C155.279 36.9258 155.294 37.2531 155.309 37.5878C155.317 37.9226 155.324 38.2573 155.324 38.6144V43.3082C155.324 43.3528 155.309 43.3975 155.287 43.4347C155.264 43.4719 155.219 43.5016 155.152 43.5314C155.084 43.5611 155.001 43.576 154.896 43.5909C154.791 43.6057 154.649 43.6132 154.483 43.6132C154.318 43.6132 154.183 43.6132 154.078 43.5909C153.973 43.576 153.89 43.5611 153.823 43.5314C153.755 43.5016 153.718 43.4719 153.695 43.4347C153.673 43.3975 153.658 43.3528 153.658 43.3082V35.2372C153.658 35.0215 153.725 34.8578 153.853 34.7462C153.981 34.6347 154.138 34.5826 154.326 34.5826H155.317C155.497 34.5826 155.639 34.5975 155.767 34.6272C155.887 34.657 156 34.709 156.09 34.776C156.187 34.8429 156.277 34.9396 156.36 35.0661C156.443 35.1926 156.533 35.3413 156.623 35.5199L158.387 38.8003C158.492 39.0012 158.589 39.1946 158.695 39.388C158.792 39.5814 158.89 39.7748 158.987 39.9608C159.077 40.1542 159.175 40.3402 159.258 40.5261C159.348 40.7121 159.43 40.8981 159.513 41.084C159.498 40.7567 159.49 40.422 159.483 40.0724C159.475 39.7227 159.475 39.388 159.475 39.0681V34.8578C159.475 34.8132 159.49 34.7686 159.52 34.7314C159.55 34.6942 159.595 34.6644 159.663 34.6347C159.73 34.6049 159.813 34.59 159.926 34.5751C160.031 34.5603 160.173 34.5603 160.338 34.5603C160.496 34.5603 160.631 34.5603 160.736 34.5751C160.841 34.59 160.924 34.6049 160.984 34.6347C161.044 34.6644 161.082 34.6942 161.104 34.7314C161.127 34.7686 161.142 34.8132 161.142 34.8578V42.9288L161.119 42.9363Z" fill="#41BB93"/>
<path d="M173.377 43.3231C173.377 43.3677 173.362 43.4123 173.34 43.4495C173.317 43.4867 173.265 43.5165 173.197 43.5388C173.13 43.5611 173.039 43.5834 172.927 43.5909C172.814 43.6057 172.672 43.6132 172.499 43.6132C172.326 43.6132 172.191 43.6132 172.079 43.5909C171.966 43.576 171.876 43.5611 171.816 43.5388C171.756 43.5165 171.703 43.4867 171.673 43.4495C171.643 43.4123 171.628 43.3677 171.628 43.3231V36.0183H171.613L168.986 43.3156C168.971 43.3751 168.933 43.4272 168.896 43.4644C168.858 43.5016 168.798 43.5314 168.723 43.5611C168.648 43.5834 168.558 43.5983 168.445 43.6057C168.333 43.6057 168.198 43.6132 168.04 43.6132C167.882 43.6132 167.747 43.6132 167.635 43.5983C167.522 43.5834 167.432 43.5686 167.357 43.5462C167.282 43.5239 167.229 43.4867 167.184 43.4495C167.139 43.4123 167.117 43.3677 167.102 43.3156L164.565 36.0183H164.55V43.3231C164.55 43.3677 164.535 43.4123 164.512 43.4495C164.49 43.4867 164.437 43.5165 164.369 43.5388C164.302 43.5611 164.212 43.5834 164.099 43.5909C163.987 43.6057 163.852 43.6132 163.679 43.6132C163.506 43.6132 163.371 43.6132 163.258 43.5909C163.146 43.576 163.056 43.5611 162.988 43.5388C162.921 43.5165 162.876 43.4867 162.846 43.4495C162.816 43.4123 162.808 43.3677 162.808 43.3231V35.3265C162.808 35.0884 162.868 34.9099 162.996 34.7834C163.123 34.657 163.289 34.5975 163.499 34.5975H164.7C164.917 34.5975 165.098 34.6123 165.255 34.6495C165.405 34.6867 165.54 34.7388 165.653 34.8206C165.766 34.9025 165.856 35.0066 165.931 35.1405C166.006 35.2744 166.073 35.438 166.126 35.6314L168.085 40.9799H168.115L170.149 35.6463C170.209 35.4529 170.277 35.2893 170.352 35.1554C170.427 35.0215 170.51 34.9099 170.607 34.8281C170.705 34.7462 170.818 34.6867 170.945 34.6495C171.073 34.6123 171.23 34.5975 171.403 34.5975H172.642C172.769 34.5975 172.874 34.6123 172.964 34.6495C173.054 34.6793 173.13 34.7314 173.19 34.7909C173.25 34.8504 173.295 34.9322 173.325 35.0215C173.355 35.1107 173.37 35.2149 173.37 35.3339V43.3305L173.377 43.3231Z" fill="#41BB93"/>
<path d="M180.448 42.8619C180.448 42.9958 180.448 43.1074 180.433 43.1966C180.418 43.2859 180.403 43.3603 180.381 43.4123C180.358 43.4644 180.328 43.509 180.291 43.5314C180.253 43.5537 180.215 43.5686 180.178 43.5686H175.629C175.479 43.5686 175.344 43.5239 175.239 43.4347C175.134 43.3454 175.081 43.1966 175.081 42.9958V35.1702C175.081 34.9694 175.134 34.8206 175.239 34.7314C175.344 34.6421 175.471 34.5975 175.629 34.5975H180.148C180.193 34.5975 180.23 34.6123 180.261 34.6347C180.291 34.657 180.321 34.7016 180.343 34.7537C180.366 34.8058 180.381 34.8876 180.396 34.9768C180.411 35.0661 180.411 35.1777 180.411 35.319C180.411 35.4455 180.411 35.5571 180.396 35.6463C180.381 35.7356 180.366 35.81 180.343 35.862C180.321 35.9141 180.291 35.9588 180.261 35.9811C180.23 36.0034 180.193 36.0183 180.148 36.0183H176.913V38.2127H179.652C179.698 38.2127 179.735 38.2276 179.765 38.2499C179.803 38.2722 179.833 38.3168 179.855 38.3689C179.878 38.421 179.893 38.4954 179.908 38.5846C179.923 38.6739 179.923 38.7855 179.923 38.9119C179.923 39.0384 179.923 39.1574 179.908 39.2467C179.893 39.3359 179.878 39.4029 179.855 39.4624C179.833 39.5145 179.803 39.5517 179.765 39.574C179.728 39.5963 179.69 39.6112 179.652 39.6112H176.913V42.1403H180.178C180.223 42.1403 180.261 42.1552 180.291 42.1775C180.321 42.1998 180.358 42.2445 180.381 42.2965C180.403 42.3486 180.418 42.423 180.433 42.5123C180.448 42.6015 180.448 42.7131 180.448 42.847V42.8619Z" fill="#41BB93"/>
<path d="M189.268 42.9363C189.268 43.0404 189.253 43.1371 189.216 43.2189C189.178 43.3008 189.126 43.3677 189.066 43.4272C189.006 43.4793 188.931 43.5239 188.84 43.5462C188.75 43.5686 188.668 43.5834 188.578 43.5834H187.797C187.632 43.5834 187.497 43.5686 187.377 43.5314C187.257 43.5016 187.151 43.4421 187.046 43.3528C186.949 43.2636 186.851 43.152 186.754 43.0032C186.664 42.8544 186.558 42.6685 186.438 42.4379L184.186 38.2424C184.059 37.9895 183.924 37.7217 183.789 37.4316C183.653 37.1415 183.533 36.8588 183.428 36.591H183.413C183.428 36.9258 183.443 37.2531 183.458 37.5878C183.466 37.9226 183.473 38.2573 183.473 38.6144V43.3082C183.473 43.3528 183.458 43.3975 183.436 43.4347C183.413 43.4719 183.368 43.5016 183.301 43.5314C183.233 43.5611 183.151 43.576 183.045 43.5909C182.94 43.6057 182.798 43.6132 182.633 43.6132C182.467 43.6132 182.332 43.6132 182.227 43.5909C182.122 43.576 182.04 43.5611 181.972 43.5314C181.904 43.5016 181.867 43.4719 181.844 43.4347C181.822 43.3975 181.807 43.3528 181.807 43.3082V35.2372C181.807 35.0215 181.874 34.8578 182.002 34.7462C182.13 34.6347 182.287 34.5826 182.475 34.5826H183.466C183.646 34.5826 183.789 34.5975 183.916 34.6272C184.036 34.657 184.149 34.709 184.239 34.776C184.337 34.8429 184.427 34.9396 184.509 35.0661C184.592 35.1926 184.682 35.3413 184.772 35.5199L186.536 38.8003C186.641 39.0012 186.739 39.1946 186.844 39.388C186.941 39.5814 187.039 39.7748 187.136 39.9608C187.227 40.1542 187.324 40.3402 187.407 40.5261C187.497 40.7121 187.579 40.8981 187.662 41.084C187.647 40.7567 187.639 40.422 187.632 40.0724C187.624 39.7227 187.624 39.388 187.624 39.0681V34.8578C187.624 34.8132 187.639 34.7686 187.669 34.7314C187.699 34.6942 187.745 34.6644 187.812 34.6347C187.88 34.6049 187.962 34.59 188.075 34.5751C188.18 34.5603 188.323 34.5603 188.488 34.5603C188.645 34.5603 188.78 34.5603 188.885 34.5751C188.991 34.59 189.073 34.6049 189.133 34.6347C189.193 34.6644 189.231 34.6942 189.253 34.7314C189.276 34.7686 189.291 34.8132 189.291 34.8578V42.9288L189.268 42.9363Z" fill="#41BB93"/>
<path d="M197 35.3413C197 35.4752 197 35.5943 196.985 35.6835C196.97 35.7802 196.955 35.8546 196.933 35.9141C196.91 35.9736 196.88 36.0183 196.842 36.0406C196.805 36.0703 196.767 36.0852 196.73 36.0852H194.463V43.3231C194.463 43.3677 194.448 43.4123 194.418 43.4495C194.388 43.4867 194.335 43.5165 194.268 43.5388C194.2 43.5611 194.103 43.5834 193.982 43.5909C193.862 43.6057 193.712 43.6132 193.54 43.6132C193.367 43.6132 193.217 43.6132 193.097 43.5909C192.977 43.576 192.879 43.5611 192.811 43.5388C192.744 43.5165 192.691 43.4867 192.661 43.4495C192.631 43.4123 192.616 43.3677 192.616 43.3231V36.0852H190.349C190.304 36.0852 190.267 36.0703 190.229 36.0406C190.192 36.0108 190.169 35.9736 190.147 35.9141C190.124 35.8546 190.109 35.7802 190.094 35.6835C190.079 35.5868 190.079 35.4752 190.079 35.3413C190.079 35.2074 190.079 35.0884 190.094 34.9843C190.109 34.8876 190.124 34.8132 190.147 34.7537C190.169 34.6942 190.199 34.657 190.229 34.6272C190.259 34.6049 190.304 34.59 190.349 34.59H196.737C196.782 34.59 196.82 34.6049 196.85 34.6272C196.887 34.6495 196.917 34.6942 196.94 34.7537C196.963 34.8132 196.978 34.8876 196.993 34.9843C197.008 35.081 197.008 35.2 197.008 35.3413H197Z" fill="#41BB93"/>
<path d="M11.6801 0.371935H1.89914C0.850273 0.371935 0 1.21453 0 2.25393V41.0691C0 42.1085 0.850273 42.9511 1.89914 42.9511H11.6801C12.7289 42.9511 13.5792 42.1085 13.5792 41.0691V2.25393C13.5792 1.21453 12.7289 0.371935 11.6801 0.371935Z" fill="#2A286B"/>
<path d="M51.6297 26.7943C50.8715 27.6497 50.0458 28.4754 49.16 29.2639C45.3843 32.589 41.0005 34.1735 35.8586 32.775C34.102 32.2989 32.5932 31.4955 31.2646 30.4243C30.1161 29.621 29.1553 28.587 28.4572 27.3968C28.3671 27.2629 28.2845 27.1364 28.247 27.0323C28.2995 27.1067 28.1569 26.8612 28.0969 26.6975C27.5414 25.5445 27.2411 24.2948 27.2411 22.9633C27.2411 22.636 27.2636 22.3161 27.3012 21.9963C27.4738 18.1207 30.2812 14.1038 34.2221 12.3929C34.6951 12.1846 35.1755 12.0061 35.6559 11.835C35.8135 11.7829 35.9787 11.7383 36.1438 11.6862C39.274 10.7043 42.5318 10.5183 45.8572 10.6374C47.7788 10.7043 49.708 10.7118 51.6372 10.6894V3.79374C50.4737 3.15402 49.6555 2.75976 48.7096 2.36551C45.602 1.04886 42.5168 0 38.2606 0C30.634 0 24.7264 2.84903 20.5528 8.54708C17.6178 12.497 16.1541 17.0719 16.1541 22.2641C16.1541 29.3532 18.7063 34.9768 23.8032 39.1202C27.6164 42.2593 32.4206 43.8959 38.2006 43.8289C42.712 43.7768 49.8957 39.8269 51.6372 36.3976V26.7868L51.6297 26.7943Z" fill="#2A286B"/>
<path d="M69.1346 33.7123V26.5562H69.4199C74.4342 26.5562 78.5027 22.5244 78.5027 17.5479L69.2022 17.5256V9.68521H77.2942C82.5037 9.68521 86.7298 5.49721 86.7298 0.327303L60.6448 0.371935C57.8299 0.371935 55.5554 2.64074 55.5554 5.43026V10.7043C56.261 10.682 56.9666 10.6597 57.6647 10.6299C58.3553 10.6002 59.0459 10.4588 59.7666 10.2803C60.4872 10.1018 61.2378 9.87861 62.0635 9.70008C60.885 13.2335 59.6314 16.6404 58.0025 19.8093C57.6948 20.4044 57.3795 20.9846 57.0417 21.5648C56.794 21.9888 56.5463 22.398 56.2835 22.8071C55.9608 23.3129 55.9082 23.4096 55.5629 23.8932V37.9821C55.5629 40.727 57.8074 42.9511 60.5772 42.9511H77.5344C82.6763 42.9511 86.8499 38.8152 86.8499 33.7197H69.1421L69.1346 33.7123Z" fill="#2A286B"/>
<path d="M29.7933 19.3109C31.8576 20.3226 33.8768 21.483 36.0237 22.331C40.1597 23.9601 41.9613 26.6306 41.5935 31.0269C35.7309 31.9642 27.7815 28.706 29.7933 19.3109Z" fill="#41BB93"/>
</g>
<defs>
<clipPath id="clip0_570_94">
<rect width="197" height="44" fill="white"/>
</clipPath>
</defs>
</svg>
