<svg width="212" height="52" viewBox="0 0 212 52" fill="none" xmlns="http://www.w3.org/2000/svg">
<path d="M0.693266 26.304C0.586156 26.2999 0.550311 26.2978 0.481025 26.2978L0.449707 24.6597C1.60933 24.3021 3.17102 23.4796 4.82695 22.8211C5.23178 22.6604 5.53197 22.5388 5.69501 22.4703C5.9269 22.3725 6.14084 22.2782 6.32827 22.1902H6.33124L6.33081 22.1884C11.5161 19.7428 11.7516 17.984 13.9501 14.0251C15.4645 11.2986 16.9915 8.549 19.4937 6.14647C20.7129 4.97589 21.9861 4.09081 23.2887 3.45854C26.4448 1.92611 29.7485 1.88122 32.8762 2.86225C35.9486 3.82625 38.8452 5.78534 41.2491 8.28911C44.4484 11.7089 46.1213 15.3937 47.0427 19.9716L44.2311 15.4581C43.1823 13.6236 41.3373 11.8411 39.1038 10.4486C37.0057 9.14083 34.5795 8.18433 32.1597 7.85855C29.7901 7.53835 27.4278 7.82511 25.401 8.98367C24.1075 9.72291 22.9413 10.8238 21.9865 12.3553L21.9834 12.3584C21.2554 13.5109 20.5638 14.6906 19.87 15.8746C17.6227 19.7096 17.2829 21.4397 14.0504 24.0633C16.4584 24.7399 19.0333 26.0383 22.1011 28.3833C25.8964 31.2839 30.4732 35.8088 36.4789 42.7902V42.7897C39.0778 45.6022 41.9497 47.9211 45.9296 46.6296C52.7129 44.0501 55.7145 35.7301 57.601 29.7364C58.5789 35.6512 55.9655 45.2357 50.6315 49.5636C46.9756 52.3171 42.4534 52.6544 38.2768 50.9908C34.4659 49.473 32.6153 47.3433 30.3769 45.0192C23.416 37.4399 16.3596 29.2146 5.73736 26.9984C4.75767 26.7941 3.14161 26.5554 1.76649 26.4145C1.59561 26.3973 1.32893 26.3744 0.95401 26.3457C0.673049 26.3247 0.868037 26.31 0.693408 26.3039L0.693266 26.304Z" fill="#ED1F24"/>
<path fill-rule="evenodd" clip-rule="evenodd" d="M25.0288 0H25.0289C38.7948 0 50.0574 11.2624 50.0574 25.0286C50.0574 38.7948 38.7948 50.0572 25.0289 50.0572H25.0288C11.2625 50.0572 0 38.7948 0 25.0286C0 11.2624 11.2625 0 25.0288 0Z" fill="#ED1F24"/>
<path fill-rule="evenodd" clip-rule="evenodd" d="M0.0108147 25.459C1.38246 25.4639 4.38346 25.861 5.9074 26.1794C16.589 28.4075 22.8827 35.7984 29.8046 43.1685C32.8577 46.4191 34.3687 48.5316 38.5842 50.211C48.902 54.3207 56.2524 45.5137 57.3581 32.0272C54.0784 44.7869 44.5176 53.2916 35.8633 43.3565C23.9143 29.4639 17.6995 25.3859 12.0396 24.4748C17.0468 21.369 19.326 16.1354 22.6737 10.8372C28.6615 1.23447 43.5836 7.20204 47.4513 13.9658C42.8993 4.59074 30.1194 -2.92685 21.4714 5.67309C15.672 11.4409 15.6717 18.7071 6.68765 22.9451C5.42438 23.5408 1.66908 24.9473 0.0107422 25.459L0.0108147 25.459Z" fill="white"/>
<path d="M81.6978 15.9238H76.9311L69.0525 24.8375V15.9238H65.2393V35.6349H69.0525V25.8847L77.1557 35.6349H81.978L73.2294 25.3163L81.6978 15.9238Z" fill="#ED1F24"/>
<path d="M91.0852 31.4853C90.4494 32.1768 89.6175 32.5229 88.5899 32.5229C87.9353 32.5229 87.3468 32.3641 86.823 32.0464C86.2997 31.7283 85.8932 31.2986 85.6034 30.7564C85.3137 30.2142 85.169 29.5789 85.169 28.8496C85.169 28.1397 85.3137 27.5134 85.6034 26.9712C85.8932 26.4295 86.2949 25.9993 86.8093 25.6817C87.3231 25.3635 87.9168 25.2047 88.5899 25.2047C89.281 25.2047 89.8794 25.3588 90.3843 25.6675C90.8892 25.9757 91.2904 26.4106 91.5896 26.9712C91.8888 27.5318 92.0387 28.1676 92.0387 28.878C92.0387 29.925 91.7205 30.7938 91.0853 31.4854L91.0852 31.4853ZM91.8141 23.3703C91.4393 22.9827 91.0003 22.6592 90.4962 22.4007C89.7295 22.0084 88.8702 21.8123 87.9167 21.8123C86.6641 21.8123 85.5477 22.1204 84.5658 22.7373C83.5851 23.3542 82.8136 24.1956 82.253 25.261C81.6924 26.3264 81.4116 27.5317 81.4116 28.878C81.4116 30.2053 81.6924 31.4012 82.253 32.4666C82.8137 33.5321 83.5851 34.3735 84.5658 34.9903C85.5476 35.6072 86.6552 35.9153 87.8889 35.9153C88.8607 35.9153 89.7342 35.7192 90.5104 35.3263C91.0112 35.0729 91.4454 34.7547 91.8141 34.3724V35.6349H95.5153V22.0925H91.8141V23.3703Z" fill="#ED1F24"/>
<path d="M98.0391 35.6352H101.712V15.3635H98.0391V35.6352Z" fill="#ED1F24"/>
<path d="M108.732 25.3447C109.273 25.027 109.909 24.8682 110.638 24.8682C111.33 24.8682 111.909 25.0081 112.377 25.289C112.844 25.5693 113.208 25.9805 113.47 26.5222C113.596 26.7833 113.693 27.0748 113.763 27.3962L107.219 27.415C107.286 27.163 107.375 26.9262 107.484 26.7047C107.774 26.1157 108.189 25.663 108.732 25.3447V25.3447ZM114.087 22.6527C113.078 22.0737 111.937 21.7839 110.666 21.7839C109.32 21.7839 108.105 22.0921 107.021 22.709C105.937 23.3258 105.082 24.1672 104.456 25.2327C103.829 26.2981 103.517 27.5034 103.517 28.8497C103.517 30.2143 103.834 31.4291 104.47 32.4946C105.105 33.56 105.979 34.4008 107.091 35.0183C108.203 35.6346 109.47 35.9433 110.891 35.9433C111.993 35.9433 113.012 35.7472 113.947 35.3543C114.881 34.9621 115.694 34.373 116.386 33.5879L114.199 31.4008C113.788 31.8872 113.302 32.2422 112.741 32.4661C112.18 32.6907 111.554 32.8027 110.863 32.8027C110.096 32.8027 109.423 32.6444 108.844 32.3263C108.264 32.0086 107.82 31.5459 107.512 30.9384C107.389 30.6971 107.291 30.4386 107.218 30.1634L117.115 30.1392C117.189 29.8404 117.236 29.5644 117.255 29.3119C117.274 29.06 117.283 28.8123 117.283 28.5689C117.283 27.261 117.003 26.0925 116.442 25.0644C115.882 24.0363 115.096 23.2327 114.087 22.6527H114.087Z" fill="#ED1F24"/>
<path d="M123.424 25.3447C123.965 25.027 124.601 24.8682 125.33 24.8682C126.022 24.8682 126.601 25.0081 127.069 25.289C127.536 25.5693 127.9 25.9805 128.162 26.5222C128.288 26.7833 128.385 27.0748 128.455 27.3962L121.91 27.415C121.978 27.163 122.067 26.9262 122.176 26.7047C122.466 26.1157 122.881 25.663 123.424 25.3447V25.3447ZM128.779 22.6527C127.77 22.0737 126.629 21.7839 125.358 21.7839C124.012 21.7839 122.797 22.0921 121.713 22.709C120.629 23.3258 119.774 24.1672 119.148 25.2327C118.521 26.2981 118.208 27.5034 118.208 28.8497C118.208 30.2143 118.526 31.4291 119.161 32.4946C119.797 33.56 120.671 34.4008 121.783 35.0183C122.895 35.6346 124.162 35.9433 125.582 35.9433C126.685 35.9433 127.704 35.7472 128.638 35.3543C129.573 34.9621 130.386 34.373 131.078 33.5879L128.891 31.4008C128.48 31.8872 127.994 32.2422 127.433 32.4661C126.872 32.6907 126.246 32.8027 125.554 32.8027C124.787 32.8027 124.115 32.6444 123.536 32.3263C122.956 32.0086 122.512 31.5459 122.204 30.9384C122.081 30.6971 121.983 30.4386 121.91 30.1634L131.807 30.1392C131.881 29.8404 131.928 29.5644 131.947 29.3119C131.966 29.06 131.975 28.8123 131.975 28.5689C131.975 27.261 131.695 26.0925 131.134 25.0644C130.573 24.0363 129.788 23.2327 128.779 22.6527H128.779Z" fill="#ED1F24"/>
<path d="M137.275 25.1488C137.556 24.9805 137.976 24.8964 138.537 24.8964C139.116 24.8964 139.663 25.0131 140.177 25.2472C140.691 25.4807 141.154 25.8403 141.565 26.3263L143.78 24.0834C143.181 23.2982 142.429 22.7145 141.523 22.3306C140.616 21.9478 139.602 21.7563 138.481 21.7563C137.415 21.7563 136.49 21.9293 135.705 22.2749C134.92 22.6209 134.312 23.1157 133.882 23.761C133.452 24.4058 133.238 25.1582 133.238 26.0181C133.238 26.8405 133.406 27.5137 133.742 28.037C134.079 28.5602 134.503 28.9668 135.018 29.2565C135.531 29.5462 136.079 29.7749 136.658 29.9433C137.237 30.1115 137.784 30.2703 138.299 30.4197C138.812 30.5696 139.238 30.7426 139.574 30.9388C139.91 31.1349 140.079 31.42 140.079 31.7938C140.079 32.1121 139.92 32.3591 139.602 32.537C139.284 32.7147 138.827 32.8031 138.228 32.8031C137.499 32.8031 136.826 32.6726 136.209 32.4108C135.593 32.1494 135.06 31.7471 134.611 31.2049L132.396 33.42C132.845 33.9437 133.377 34.397 133.995 34.7799C134.611 35.1633 135.288 35.453 136.027 35.6492C136.766 35.8454 137.528 35.9436 138.312 35.9436C139.939 35.9436 141.228 35.5561 142.182 34.7799C143.135 34.0048 143.612 32.953 143.612 31.6256C143.612 30.8032 143.447 30.1306 143.121 29.6069C142.794 29.0836 142.373 28.6634 141.859 28.3452C141.345 28.0276 140.803 27.7799 140.233 27.6022C139.663 27.4249 139.116 27.2615 138.593 27.1116C138.069 26.9622 137.649 26.7987 137.331 26.6209C137.013 26.4431 136.855 26.186 136.855 25.8495C136.855 25.5507 136.994 25.3172 137.275 25.149V25.1488Z" fill="#ED1F24"/>
<path d="M153.547 29.8593C153.547 30.7007 153.332 31.3549 152.902 31.822C152.472 32.2894 151.874 32.523 151.108 32.523C150.603 32.523 150.164 32.4204 149.79 32.2148C149.416 32.0091 149.135 31.7057 148.949 31.3034C148.762 30.9016 148.669 30.4199 148.669 29.8593V22.0925H144.967V29.9434C144.967 31.1209 145.229 32.1585 145.752 33.0556C146.276 33.9527 147.005 34.6496 147.94 35.1444C148.874 35.6397 149.931 35.8874 151.108 35.8874C152.285 35.8874 153.337 35.6397 154.262 35.1444C155.188 34.6495 155.912 33.9527 156.435 33.0556C156.958 32.1585 157.22 31.1209 157.22 29.9434V22.0925H153.547V29.8593V29.8593Z" fill="#ED1F24"/>
<path d="M175.633 22.0928L172.884 30.3405L170.026 22.0928H167.39L164.557 30.3331L161.811 22.0928H158.109L163.156 35.6353H165.82L168.746 27.7143L171.624 35.6353H174.288L179.334 22.0928H175.633Z" fill="#ED1F24"/>
<path d="M188.744 31.4853C188.108 32.1768 187.276 32.5229 186.249 32.5229C185.594 32.5229 185.005 32.3641 184.482 32.0464C183.958 31.7283 183.552 31.2986 183.262 30.7564C182.972 30.2142 182.828 29.5789 182.828 28.8496C182.828 28.1397 182.972 27.5134 183.262 26.9712C183.552 26.4295 183.954 25.9993 184.468 25.6817C184.982 25.3635 185.575 25.2047 186.249 25.2047C186.94 25.2047 187.538 25.3588 188.043 25.6675C188.548 25.9757 188.949 26.4106 189.248 26.9712C189.547 27.5318 189.697 28.1676 189.697 28.878C189.697 29.925 189.379 30.7938 188.744 31.4854L188.744 31.4853ZM189.473 23.3703C189.098 22.9827 188.659 22.6592 188.155 22.4007C187.388 22.0084 186.529 21.8123 185.575 21.8123C184.323 21.8123 183.206 22.1204 182.225 22.7373C181.244 23.3542 180.472 24.1956 179.912 25.261C179.351 26.3264 179.07 27.5317 179.07 28.878C179.07 30.2053 179.351 31.4012 179.912 32.4666C180.472 33.5321 181.244 34.3735 182.225 34.9903C183.206 35.6072 184.314 35.9153 185.548 35.9153C186.519 35.9153 187.393 35.7192 188.169 35.3263C188.67 35.0729 189.104 34.7547 189.473 34.3724V35.6349H193.174V22.0925H189.473V23.3703Z" fill="#ED1F24"/>
<path d="M204.663 22.1343C204.149 21.9198 203.556 21.812 202.883 21.812C201.369 21.812 200.21 22.2932 199.406 23.256C199.397 23.2672 199.388 23.2788 199.378 23.2902V22.0923H195.706V35.6347H199.378V28.1766C199.378 27.1486 199.626 26.3918 200.121 25.9053C200.616 25.4195 201.257 25.1765 202.042 25.1765C202.416 25.1765 202.748 25.228 203.037 25.3305C203.327 25.4336 203.574 25.6066 203.78 25.849L206.08 23.1854C205.649 22.7001 205.177 22.3493 204.663 22.1342L204.663 22.1343Z" fill="#ED1F24"/>
<path d="M207.136 35.6355H210.865V22.093H207.136V35.6355Z" fill="#ED1F24"/>
<path d="M209.016 19.9055C209.632 19.9055 210.132 19.7045 210.515 19.3028C210.898 18.9005 211.09 18.4009 211.09 17.8025C211.09 17.223 210.898 16.7281 210.515 16.3163C210.132 15.9056 209.632 15.6995 209.016 15.6995C208.417 15.6995 207.922 15.9056 207.529 16.3163C207.137 16.7281 206.94 17.223 206.94 17.8025C206.94 18.4009 207.137 18.9005 207.529 19.3028C207.922 19.7045 208.417 19.9055 209.016 19.9055Z" fill="#ED1F24"/>
</svg>
